# xmcd CD database file
#
# Track frame offsets:
#	150
#	13950
#	28240
#	41985
#	54552
#	67597
#	74107
#	89250
#	105515
#	127142
#	144970
#
# Disc length: 2230 seconds
#
# Revision: 0
# Processed by: cddbd v1.5.1PL0 Copyright (c) Steve Scherf et al.
# Submitted via: CDex 1.51
#
DISCID=a108b40b
DTITLE=Pachanga Mix Vol. 2 - Super Exitos Bailables
DYEAR=1997
DGENRE=Merengue
TTITLE0=grupo niche - me sabe a peru
TTITLE1=Los titanes - basto una mirada
TTITLE2=mosaico pastor lopez
TTITLE3=joe arroyo - las cajas
TTITLE4=jorge onate - que tienes que me vuelves loco
TTITLE5=los hermanos zuleta - la llorona loca
TTITLE6=diomedez diaz - con la misma vaina
TTITLE7=la sonora dinamita - el chupa cabras
TTITLE8=ivan y su bam band - solo un cigarrillo
TTITLE9=embajadores vallenatos - la pediguena
TTITLE10=la bocana - come on baby
EXTD=YEAR: 1997
EXTT0=
EXTT1=
EXTT2=
EXTT3=
EXTT4=
EXTT5=
EXTT6=
EXTT7=
EXTT8=
EXTT9=
EXTT10=
PLAYORDER=
